<mxfile host="app.diagrams.net" modified="2022-05-29T18:42:40.291Z" agent="5.0 (Macintosh; Intel Mac OS X 10_15_7) AppleWebKit/537.36 (KHTML, like Gecko) Chrome/102.0.5005.61 Safari/537.36" etag="SHo3sb9dHTlROdplsykc" version="18.1.3" type="github" pages="2">
  <diagram id="3uBRCvRjeWxK8TYO13-e" name="Page-1">
    <mxGraphModel dx="1426" dy="673" grid="1" gridSize="10" guides="1" tooltips="1" connect="1" arrows="1" fold="1" page="1" pageScale="1" pageWidth="827" pageHeight="1169" math="0" shadow="0">
      <root>
        <mxCell id="0" />
        <mxCell id="1" parent="0" />
        <mxCell id="oqson8gnHEtwU5q6xzS6-1" value="Способ плавания" style="rounded=0;whiteSpace=wrap;html=1;fillColor=#dae8fc;strokeColor=#6c8ebf;" vertex="1" parent="1">
          <mxGeometry x="40" y="10" width="160" height="30" as="geometry" />
        </mxCell>
        <mxCell id="oqson8gnHEtwU5q6xzS6-2" value="*&amp;nbsp;Вольный стиль&lt;br&gt;*&amp;nbsp;Брасс&lt;br&gt;*&amp;nbsp;Баттерфляй&lt;br&gt;*&amp;nbsp;На спине&lt;br&gt;*&amp;nbsp;Комплексное плавание" style="rounded=0;whiteSpace=wrap;html=1;align=left;" vertex="1" parent="1">
          <mxGeometry x="40" y="40" width="160" height="90" as="geometry" />
        </mxCell>
        <mxCell id="oqson8gnHEtwU5q6xzS6-3" value="Разряд" style="rounded=0;whiteSpace=wrap;html=1;fillColor=#dae8fc;strokeColor=#6c8ebf;" vertex="1" parent="1">
          <mxGeometry x="220" y="10" width="320" height="30" as="geometry" />
        </mxCell>
        <mxCell id="oqson8gnHEtwU5q6xzS6-4" value="* Мастер спорта Республики Беларусь (МС)" style="rounded=0;whiteSpace=wrap;html=1;align=left;" vertex="1" parent="1">
          <mxGeometry x="220" y="70" width="320" height="30" as="geometry" />
        </mxCell>
        <mxCell id="oqson8gnHEtwU5q6xzS6-5" value="*&amp;nbsp;Мастер спорта РБ международного класса (МСМК)" style="rounded=0;whiteSpace=wrap;html=1;align=left;" vertex="1" parent="1">
          <mxGeometry x="220" y="40" width="320" height="30" as="geometry" />
        </mxCell>
        <mxCell id="oqson8gnHEtwU5q6xzS6-6" value="&lt;div&gt;- 1-12-е место на Олимпийских играх или чемпионате мира;&lt;/div&gt;&lt;div&gt;- 1-8-е место на чемпионате Европы или соревнованиях розыгрыша Кубка мира;&lt;/div&gt;&lt;div&gt;- 1-3-е место на Всемирной Универсиаде;&lt;/div&gt;&lt;div&gt;- 1-3-е место на этапе розыгрыша Кубка мира в индивидуальных номерах программы;&lt;/div&gt;&lt;div&gt;- выполнить временной норматив, равный 32-му результату списка сильнейших пловцов мира FINA ( международной федерации плавания) за предыдущий год (бассейн 50 и 25м) на международных соревнованиях, включенных в календарь FINA и LEN (Европейской лиги плавания).&lt;/div&gt;" style="rounded=0;whiteSpace=wrap;html=1;align=left;" vertex="1" parent="1">
          <mxGeometry x="560" y="70" width="580" height="110" as="geometry" />
        </mxCell>
        <mxCell id="oqson8gnHEtwU5q6xzS6-8" value="&lt;div&gt;- выполнить указанный в таблице временной норматив на чемпионатах, Кубках, первенствах среди юниоров, комплексных спортивных соревнованиях Республики Беларусь, международных соревнованиях и матчевых встречах с участием сборной команды Беларуси, чемпионатах, первенствах, Кубках СНГ&lt;/div&gt;&lt;div&gt;- в эстафетном плавании выполнить временной норматив на первом этапе на соревнованиях того же ранга.&lt;/div&gt;" style="rounded=0;whiteSpace=wrap;html=1;align=left;" vertex="1" parent="1">
          <mxGeometry x="560" y="210" width="580" height="90" as="geometry" />
        </mxCell>
        <mxCell id="oqson8gnHEtwU5q6xzS6-10" value="* Кандидат в мастера спорта (КМС)" style="rounded=0;whiteSpace=wrap;html=1;align=left;" vertex="1" parent="1">
          <mxGeometry x="220" y="100" width="320" height="30" as="geometry" />
        </mxCell>
        <mxCell id="oqson8gnHEtwU5q6xzS6-11" value="- выполнить указанный в таблице временной норматив на соревнованиях не ниже областного масштаба и города Минска" style="rounded=0;whiteSpace=wrap;html=1;align=left;" vertex="1" parent="1">
          <mxGeometry x="560" y="330" width="580" height="40" as="geometry" />
        </mxCell>
        <mxCell id="oqson8gnHEtwU5q6xzS6-12" value="* I разряд" style="rounded=0;whiteSpace=wrap;html=1;align=left;" vertex="1" parent="1">
          <mxGeometry x="220" y="130" width="320" height="30" as="geometry" />
        </mxCell>
        <mxCell id="oqson8gnHEtwU5q6xzS6-13" value="* II разряд" style="rounded=0;whiteSpace=wrap;html=1;align=left;" vertex="1" parent="1">
          <mxGeometry x="220" y="160" width="320" height="30" as="geometry" />
        </mxCell>
        <mxCell id="oqson8gnHEtwU5q6xzS6-14" value="* III разряд" style="rounded=0;whiteSpace=wrap;html=1;align=left;" vertex="1" parent="1">
          <mxGeometry x="220" y="190" width="320" height="30" as="geometry" />
        </mxCell>
        <mxCell id="oqson8gnHEtwU5q6xzS6-15" value="* юношеские разряды" style="rounded=0;whiteSpace=wrap;html=1;align=left;" vertex="1" parent="1">
          <mxGeometry x="220" y="220" width="320" height="30" as="geometry" />
        </mxCell>
        <mxCell id="oqson8gnHEtwU5q6xzS6-16" value="&lt;span style=&quot;text-align: left;&quot;&gt;Мастер спорта РБ международного класса (МСМК)&lt;/span&gt;" style="rounded=0;whiteSpace=wrap;html=1;fillColor=#fff2cc;strokeColor=#d6b656;" vertex="1" parent="1">
          <mxGeometry x="560" y="40" width="580" height="30" as="geometry" />
        </mxCell>
        <mxCell id="oqson8gnHEtwU5q6xzS6-18" value="&lt;span style=&quot;text-align: left;&quot;&gt;Мастер спорта Республики Беларусь (МС)&lt;/span&gt;" style="rounded=0;whiteSpace=wrap;html=1;fillColor=#fff2cc;strokeColor=#d6b656;" vertex="1" parent="1">
          <mxGeometry x="560" y="180" width="580" height="30" as="geometry" />
        </mxCell>
        <mxCell id="oqson8gnHEtwU5q6xzS6-19" value="&lt;span style=&quot;text-align: left;&quot;&gt;Кандидат в мастера спорта (КМС)&lt;/span&gt;" style="rounded=0;whiteSpace=wrap;html=1;fillColor=#fff2cc;strokeColor=#d6b656;" vertex="1" parent="1">
          <mxGeometry x="560" y="300" width="580" height="30" as="geometry" />
        </mxCell>
        <mxCell id="oqson8gnHEtwU5q6xzS6-20" value="&lt;span style=&quot;text-align: left;&quot;&gt;I разряд&lt;/span&gt;" style="rounded=0;whiteSpace=wrap;html=1;fillColor=#fff2cc;strokeColor=#d6b656;" vertex="1" parent="1">
          <mxGeometry x="560" y="370" width="580" height="30" as="geometry" />
        </mxCell>
        <mxCell id="oqson8gnHEtwU5q6xzS6-21" value="- выполнить указанный в таблице временной норматив на соревнованиях не ниже городского масштаба." style="rounded=0;whiteSpace=wrap;html=1;align=left;" vertex="1" parent="1">
          <mxGeometry x="560" y="400" width="580" height="30" as="geometry" />
        </mxCell>
        <mxCell id="oqson8gnHEtwU5q6xzS6-22" value="&lt;span style=&quot;text-align: left;&quot;&gt;II, III разряд&lt;/span&gt;" style="rounded=0;whiteSpace=wrap;html=1;fillColor=#fff2cc;strokeColor=#d6b656;" vertex="1" parent="1">
          <mxGeometry x="560" y="430" width="580" height="30" as="geometry" />
        </mxCell>
        <mxCell id="oqson8gnHEtwU5q6xzS6-23" value="- выполнить указанный в таблице временной норматив на соревнованиях любого масштаба." style="rounded=0;whiteSpace=wrap;html=1;align=left;" vertex="1" parent="1">
          <mxGeometry x="560" y="460" width="580" height="30" as="geometry" />
        </mxCell>
        <mxCell id="oqson8gnHEtwU5q6xzS6-24" value="&lt;div style=&quot;text-align: left;&quot;&gt;&lt;span style=&quot;background-color: initial;&quot;&gt;Юношеские разряды&lt;/span&gt;&lt;/div&gt;" style="rounded=0;whiteSpace=wrap;html=1;fillColor=#fff2cc;strokeColor=#d6b656;" vertex="1" parent="1">
          <mxGeometry x="560" y="490" width="580" height="30" as="geometry" />
        </mxCell>
        <mxCell id="oqson8gnHEtwU5q6xzS6-25" value="- присваиваются при условии выполнения указанного в таблице временного норматива не менее чем в трех способах плавания или в одном способе и комплексном плавании." style="rounded=0;whiteSpace=wrap;html=1;align=left;" vertex="1" parent="1">
          <mxGeometry x="560" y="520" width="580" height="30" as="geometry" />
        </mxCell>
        <mxCell id="oqson8gnHEtwU5q6xzS6-26" value="Разрядные требования" style="rounded=0;whiteSpace=wrap;html=1;fillColor=#dae8fc;strokeColor=#6c8ebf;" vertex="1" parent="1">
          <mxGeometry x="560" y="10" width="580" height="30" as="geometry" />
        </mxCell>
      </root>
    </mxGraphModel>
  </diagram>
  <diagram id="lwywVyogBDPDDdzofFM2" name="Page-2">
    <mxGraphModel dx="1426" dy="673" grid="1" gridSize="10" guides="1" tooltips="1" connect="1" arrows="1" fold="1" page="1" pageScale="1" pageWidth="827" pageHeight="1169" math="0" shadow="0">
      <root>
        <mxCell id="0" />
        <mxCell id="1" parent="0" />
        <mxCell id="GxUq6jbFWcJPm_f2jYHd-1" value="Временной норматив" style="rounded=0;whiteSpace=wrap;html=1;fillColor=#dae8fc;strokeColor=#6c8ebf;" vertex="1" parent="1">
          <mxGeometry x="580" y="80" width="160" height="30" as="geometry" />
        </mxCell>
        <mxCell id="GxUq6jbFWcJPm_f2jYHd-2" value="Тип способа плавания&lt;br&gt;Дистанция&lt;br&gt;Временной норматив" style="rounded=0;whiteSpace=wrap;html=1;align=center;" vertex="1" parent="1">
          <mxGeometry x="580" y="110" width="160" height="50" as="geometry" />
        </mxCell>
        <mxCell id="AMMwfCJ8vp5vnsO31n5h-1" style="edgeStyle=orthogonalEdgeStyle;rounded=0;orthogonalLoop=1;jettySize=auto;html=1;entryX=0;entryY=0.5;entryDx=0;entryDy=0;fontFamily=Helvetica;fontSize=12;fontColor=default;endArrow=none;endFill=0;" edge="1" parent="1" source="TGe8yRkI1XczybH840-i-1" target="GxUq6jbFWcJPm_f2jYHd-1">
          <mxGeometry relative="1" as="geometry" />
        </mxCell>
        <mxCell id="TGe8yRkI1XczybH840-i-1" value="Разряд" style="rounded=0;whiteSpace=wrap;html=1;fillColor=#dae8fc;strokeColor=#6c8ebf;" vertex="1" parent="1">
          <mxGeometry x="390" y="80" width="160" height="30" as="geometry" />
        </mxCell>
        <mxCell id="eh5gAPmO3vDbbikgjuZN-1" value="Разряд" style="rounded=0;whiteSpace=wrap;html=1;align=center;" vertex="1" parent="1">
          <mxGeometry x="390" y="110" width="160" height="30" as="geometry" />
        </mxCell>
        <mxCell id="dlyEmwu1dpHWa8kW3OXb-12" style="edgeStyle=orthogonalEdgeStyle;rounded=0;orthogonalLoop=1;jettySize=auto;html=1;entryX=0;entryY=0.5;entryDx=0;entryDy=0;fontFamily=Helvetica;fontSize=12;fontColor=default;endArrow=none;endFill=0;" edge="1" parent="1" source="dlyEmwu1dpHWa8kW3OXb-13">
          <mxGeometry relative="1" as="geometry">
            <mxPoint x="200" y="25" as="targetPoint" />
          </mxGeometry>
        </mxCell>
        <mxCell id="dlyEmwu1dpHWa8kW3OXb-13" value="Разрядные нормы" style="rounded=0;whiteSpace=wrap;html=1;fillColor=#dae8fc;strokeColor=#6c8ebf;" vertex="1" parent="1">
          <mxGeometry x="10" y="10" width="160" height="30" as="geometry" />
        </mxCell>
        <mxCell id="dlyEmwu1dpHWa8kW3OXb-14" value="Наименование&lt;br&gt;Страна" style="rounded=0;whiteSpace=wrap;html=1;align=center;" vertex="1" parent="1">
          <mxGeometry x="10" y="40" width="160" height="100" as="geometry" />
        </mxCell>
        <mxCell id="dlyEmwu1dpHWa8kW3OXb-15" style="edgeStyle=orthogonalEdgeStyle;rounded=0;orthogonalLoop=1;jettySize=auto;html=1;entryX=0;entryY=0.5;entryDx=0;entryDy=0;fontFamily=Helvetica;fontSize=12;fontColor=default;endArrow=none;endFill=0;" edge="1" parent="1" source="dlyEmwu1dpHWa8kW3OXb-16">
          <mxGeometry relative="1" as="geometry">
            <mxPoint x="390" y="95" as="targetPoint" />
          </mxGeometry>
        </mxCell>
        <mxCell id="dlyEmwu1dpHWa8kW3OXb-16" value="Дата действия" style="rounded=0;whiteSpace=wrap;html=1;fillColor=#dae8fc;strokeColor=#6c8ebf;" vertex="1" parent="1">
          <mxGeometry x="200" y="80" width="160" height="30" as="geometry" />
        </mxCell>
        <mxCell id="dlyEmwu1dpHWa8kW3OXb-17" value="Дата начала&lt;br&gt;Дата окончание" style="rounded=0;whiteSpace=wrap;html=1;align=center;" vertex="1" parent="1">
          <mxGeometry x="200" y="110" width="160" height="30" as="geometry" />
        </mxCell>
        <mxCell id="dlyEmwu1dpHWa8kW3OXb-18" style="edgeStyle=orthogonalEdgeStyle;rounded=0;orthogonalLoop=1;jettySize=auto;html=1;entryX=0;entryY=0.5;entryDx=0;entryDy=0;fontFamily=Helvetica;fontSize=12;fontColor=default;endArrow=none;endFill=0;" edge="1" parent="1">
          <mxGeometry relative="1" as="geometry">
            <mxPoint x="200" y="95" as="targetPoint" />
            <mxPoint x="170" y="95" as="sourcePoint" />
          </mxGeometry>
        </mxCell>
        <mxCell id="dlyEmwu1dpHWa8kW3OXb-19" value="Страна" style="rounded=0;whiteSpace=wrap;html=1;fillColor=#dae8fc;strokeColor=#6c8ebf;" vertex="1" parent="1">
          <mxGeometry x="200" y="10" width="160" height="30" as="geometry" />
        </mxCell>
        <mxCell id="dlyEmwu1dpHWa8kW3OXb-20" value="Страна" style="rounded=0;whiteSpace=wrap;html=1;align=center;" vertex="1" parent="1">
          <mxGeometry x="200" y="40" width="160" height="30" as="geometry" />
        </mxCell>
      </root>
    </mxGraphModel>
  </diagram>
</mxfile>
